<?xml version="1.0" encoding="utf-8"?>
<!-- Generator: Adobe Illustrator 18.1.1, SVG Export Plug-In . SVG Version: 6.00 Build 0)  -->
<!DOCTYPE svg PUBLIC "-//W3C//DTD SVG 1.1//EN" "http://www.w3.org/Graphics/SVG/1.1/DTD/svg11.dtd">
<svg version="1.1" xmlns="http://www.w3.org/2000/svg" xmlns:xlink="http://www.w3.org/1999/xlink" x="0px" y="0px"
	 viewBox="0 0 28.6 32.1" enable-background="new 0 0 28.6 32.1" xml:space="preserve">
<g id="Objects">
	<g>
		<path fill="#010101" d="M19.9,2.4H8c-0.4,0-0.7,0.3-0.7,0.7S7.6,3.8,8,3.8h11.9c0.4,0,0.7-0.3,0.7-0.7S20.3,2.4,19.9,2.4z"/>
		<path fill="#010101" d="M23.5,21.3h-2.8v-1.4h2.8V21.3z"/>
		<path fill="#010101" d="M8,21.3H5.2v-1.4H8V21.3z"/>
		<path fill="#010101" d="M27,5.9V4.5c0-2.3-1.9-4.2-4.2-4.2H5.9c-2.3,0-4.2,1.9-4.2,4.2v1.4c0,0-0.1,6.3,0,6.3V24
			C1.2,24.4,1,24.9,1,25.5V27c0,1.2,0.9,2.1,2.1,2.1h0.7v1.4c0,0.8,0.6,1.4,1.4,1.4H8c0.8,0,1.4-0.6,1.4-1.4v-1.4h9.8v1.4
			c0,0.8,0.6,1.4,1.4,1.4h2.8c0.8,0,1.4-0.6,1.4-1.4v-1.4h0.7h0c1.2,0,2.1-0.9,2.1-2.1v-1.4h0c0-0.6-0.3-1.2-0.7-1.6V12.2 M1.7,10.8
			H0.3V7.3h1.4V10.8z M5.9,1.6h16.9c1.6,0,2.8,1.3,2.8,2.8H3.1C3.1,2.9,4.3,1.6,5.9,1.6z M17.1,16.4h-1.4c-0.4,0-0.7-0.3-0.7-0.7
			V6.6c0-0.4,0.3-0.7,0.7-0.7h9.8v10.5h-2.1 M22.1,16.4h-3.5 M3.1,5.9h9.8c0.4,0,0.7,0.3,0.7,0.7v9.1c0,0.4-0.3,0.7-0.7,0.7H3.1V5.9
			z M3.1,17.8h9.8c0.5,0,1-0.2,1.4-0.5c0.4,0.3,0.9,0.5,1.4,0.5h9.8v5.6H3.1V17.8z M26.3,27c0,0.4-0.3,0.7-0.7,0.7h0H3.1
			c-0.4,0-0.7-0.3-0.7-0.7v-1.4c0-0.4,0.3-0.7,0.7-0.7h22.5c0.4,0,0.7,0.3,0.7,0.7h0L26.3,27L26.3,27z M27,10.8V7.3h1.4v3.5H27z"/>
	</g>
</g>
</svg>
