<?xml version="1.0" encoding="utf-8"?>
<!-- Generator: Adobe Illustrator 18.1.1, SVG Export Plug-In . SVG Version: 6.00 Build 0)  -->
<svg version="1.1" id="Layer_1" xmlns="http://www.w3.org/2000/svg" xmlns:xlink="http://www.w3.org/1999/xlink" x="0px" y="0px"
	 viewBox="0 0 71.4 27.2" enable-background="new 0 0 71.4 27.2" xml:space="preserve">
<g>
	<path fill="none" stroke="#010101" stroke-miterlimit="10" d="M4.9,5.4c0-0.7,0.5-1.2,1.2-1.2h6.5c0.7,0,1.2,0.5,1.2,1.2v4.8
		c0,0.7-0.5,1.2-1.2,1.2H6.1c-0.7,0-1.2-0.5-1.2-1.2V5.4z"/>
	<g>
		<path fill="#010101" d="M22.5,5.2c0.1,0,0.2,0.1,0.2,0.2v4.8c0,0.1-0.1,0.2-0.2,0.2H16c-0.1,0-0.2-0.1-0.2-0.2V5.4
			c0-0.1,0.1-0.2,0.2-0.2H22.5 M22.5,4.2H16c-0.7,0-1.2,0.5-1.2,1.2v4.8c0,0.7,0.5,1.2,1.2,1.2h6.5c0.7,0,1.2-0.5,1.2-1.2V5.4
			C23.7,4.7,23.1,4.2,22.5,4.2L22.5,4.2z"/>
	</g>
	<g>
		<path fill="#010101" d="M32.4,5.2c0.1,0,0.2,0.1,0.2,0.2v4.8c0,0.1-0.1,0.2-0.2,0.2h-6.5c-0.1,0-0.2-0.1-0.2-0.2V5.4
			c0-0.1,0.1-0.2,0.2-0.2H32.4 M32.4,4.2h-6.5c-0.7,0-1.2,0.5-1.2,1.2v4.8c0,0.7,0.5,1.2,1.2,1.2h6.5c0.7,0,1.2-0.5,1.2-1.2V5.4
			C33.6,4.7,33,4.2,32.4,4.2L32.4,4.2z"/>
	</g>
	<g>
		<path fill="#010101" d="M42.4,5.2c0.1,0,0.2,0.1,0.2,0.2v4.8c0,0.1-0.1,0.2-0.2,0.2h-6.5c-0.1,0-0.2-0.1-0.2-0.2V5.4
			c0-0.1,0.1-0.2,0.2-0.2H42.4 M42.4,4.2h-6.5c-0.7,0-1.2,0.5-1.2,1.2v4.8c0,0.7,0.5,1.2,1.2,1.2h6.5c0.7,0,1.2-0.5,1.2-1.2V5.4
			C43.6,4.7,43,4.2,42.4,4.2L42.4,4.2z"/>
	</g>
	<g>
		<path fill="#010101" d="M52.3,5.2c0.1,0,0.2,0.1,0.2,0.2v4.8c0,0.1-0.1,0.2-0.2,0.2h-6.5c-0.1,0-0.2-0.1-0.2-0.2V5.4
			c0-0.1,0.1-0.2,0.2-0.2H52.3 M52.3,4.2h-6.5c-0.7,0-1.2,0.5-1.2,1.2v4.8c0,0.7,0.5,1.2,1.2,1.2h6.5c0.7,0,1.2-0.5,1.2-1.2V5.4
			C53.5,4.7,52.9,4.2,52.3,4.2L52.3,4.2z"/>
	</g>
	<g>
		<path fill="#010101" d="M64.8,5.3C64.8,5.3,64.8,5.3,64.8,5.3C64.8,5.3,64.8,5.3,64.8,5.3c0.1,0,0.1,0.1,0.3,0.5l1.7,4.4
			c-0.1,0-0.1,0-0.2,0h-6.5c-0.1,0-0.2-0.1-0.2-0.1V5.5c0-0.1,0.1-0.1,0.2-0.1H64.8 M64.8,4.3h-4.7c-0.7,0-1.2,0.5-1.2,1.1v4.6
			c0,0.6,0.5,1.1,1.2,1.1h6.5c0.7,0,1.6-0.3,1.1-1.3L66,5.5C65.7,4.8,65.5,4.3,64.8,4.3L64.8,4.3z"/>
	</g>
	<g>
		<path fill="#010101" d="M4.5,1.4L4.5,1.4l61,0c0.1,0,0.1,0,0.1,0l0,0c0,0,0.1,0.1,0.2,0.4l4.1,10.5l0.1,0.6l0,5.1l0,4
			c0,0.5-0.4,0.6-0.6,0.6h-1.9c0-0.1,0-0.2,0-0.3l0-0.1c0-3.3-2.8-6-6.1-6c-3.3,0-6,2.7-6.1,6.1c0,0.1,0,0.2,0,0.2l-24.9,0l-1,0
			c0-0.1,0-0.2,0-0.3c0-3.3-2.7-6.1-6.1-6.1c-3.3,0-6,2.7-6.1,6.1c0,0.1,0,0.2,0,0.3l-0.3,0c0-0.1,0-0.2,0-0.3c0-3.3-2.7-6-6-6
			C7.7,16.3,5,19,5,22.3c0,0.1,0,0.2,0,0.3H1.5L1.4,4c0-0.5,0.3-1,0.8-1.5C2.8,1.8,3.8,1.4,4.5,1.4 M4.5,0.4C2.7,0.4,0.4,2.2,0.4,4
			l0.1,19.6h5.6C6.1,23.2,6,22.8,6,22.3v0c0-2.8,2.3-5,5.1-5c2.8,0,5,2.3,5,5v0c0,0.4-0.1,0.9-0.2,1.3l2.6,0
			c-0.1-0.4-0.2-0.8-0.2-1.3c0-2.8,2.3-5.1,5.1-5.1c2.8,0,5.1,2.3,5.1,5.1c0,0.4-0.1,0.9-0.2,1.3l2.2,0h26c-0.1-0.4-0.2-0.8-0.2-1.2
			v0c0-2.8,2.3-5,5.1-5c2.8,0,5,2.2,5.1,5c0,0,0,0,0,0.1c0,0.4-0.1,0.9-0.2,1.3h3.1c0.8,0,1.6-0.6,1.6-1.6l0-4v-5.2L70.9,12
			L66.7,1.4c-0.2-0.6-0.5-1-1.2-1L4.5,0.4C4.6,0.4,4.5,0.4,4.5,0.4L4.5,0.4z"/>
	</g>
	<g>
		<path fill="#010101" d="M23.5,18.9c1.9,0,3.5,1.6,3.5,3.5c0,1.9-1.6,3.5-3.5,3.5c-1.9,0-3.5-1.6-3.5-3.5
			C20,20.5,21.6,18.9,23.5,18.9 M23.5,24.9L23.5,24.9c1.4,0,2.5-1.1,2.5-2.5l0-0.1l0,0c0-1.4-1.1-2.5-2.5-2.5
			c-1.4,0-2.5,1.1-2.5,2.6C20.9,23.8,22.1,24.9,23.5,24.9 M23.5,17.9c-2.5,0-4.5,2-4.5,4.5c0,0,0,0,0,0c0,2.5,2,4.5,4.5,4.5
			c0,0,0,0,0,0c2.5,0,4.5-2,4.5-4.5v0C27.9,19.9,25.9,17.9,23.5,17.9L23.5,17.9z M23.5,23.9c-0.8,0-1.5-0.7-1.5-1.5c0,0,0,0,0,0
			c0-0.8,0.7-1.5,1.5-1.5c0.8,0,1.5,0.7,1.5,1.5v0C25,23.3,24.3,23.9,23.5,23.9L23.5,23.9L23.5,23.9z"/>
	</g>
	<g>
		<path fill="#010101" d="M11.1,18.9c1.9,0,3.5,1.6,3.5,3.5c0,1.9-1.6,3.5-3.5,3.5c-1.9,0-3.5-1.6-3.5-3.5
			C7.6,20.5,9.1,18.9,11.1,18.9 M11.1,24.9L11.1,24.9c1.4,0,2.5-1.1,2.5-2.5l0-0.1l0,0c0-1.4-1.1-2.5-2.5-2.5
			c-1.4,0-2.5,1.1-2.5,2.6C8.5,23.8,9.7,24.9,11.1,24.9 M11.1,17.9c-2.5,0-4.5,2-4.5,4.5c0,0,0,0,0,0c0,2.5,2,4.5,4.5,4.5
			c0,0,0,0,0,0c2.5,0,4.5-2,4.5-4.5v0C15.5,19.9,13.5,17.9,11.1,17.9L11.1,17.9z M11.1,23.9c-0.8,0-1.5-0.7-1.5-1.5c0,0,0,0,0,0
			c0-0.8,0.7-1.5,1.5-1.5c0.8,0,1.5,0.7,1.5,1.5v0C12.6,23.3,11.9,23.9,11.1,23.9L11.1,23.9L11.1,23.9z"/>
	</g>
	<g>
		<path fill="#010101" d="M61.5,18.9c1.9,0,3.5,1.6,3.5,3.5c0,1.9-1.6,3.5-3.5,3.5c-1.9,0-3.5-1.6-3.5-3.5
			C58,20.5,59.6,18.9,61.5,18.9 M61.5,24.9L61.5,24.9c1.4,0,2.5-1.1,2.5-2.5l0-0.1l0,0c0-1.4-1.1-2.5-2.5-2.5
			c-1.4,0-2.5,1.1-2.5,2.6C59,23.8,60.1,24.9,61.5,24.9 M61.5,17.9c-2.5,0-4.5,2-4.5,4.5c0,0,0,0,0,0c0,2.5,2,4.5,4.5,4.5
			c0,0,0,0,0,0c2.5,0,4.5-2,4.5-4.5v0C66,19.9,64,17.9,61.5,17.9L61.5,17.9z M61.5,23.9c-0.8,0-1.5-0.7-1.5-1.5c0,0,0,0,0,0
			c0-0.8,0.7-1.5,1.5-1.5c0.8,0,1.5,0.7,1.5,1.5v0C63,23.3,62.3,23.9,61.5,23.9L61.5,23.9L61.5,23.9z"/>
	</g>
</g>
</svg>
