<?xml version="1.0" encoding="UTF-8" standalone="no"?>
<svg width="675px" height="749px" viewBox="0 0 675 749" version="1.1" xmlns="http://www.w3.org/2000/svg" xmlns:xlink="http://www.w3.org/1999/xlink" xmlns:sketch="http://www.bohemiancoding.com/sketch/ns">
    <!-- Generator: Sketch 3.3.2 (12043) - http://www.bohemiancoding.com/sketch -->
    <title>path</title>
    <desc>Created with Sketch.</desc>
    <defs></defs>
    <g id="Page-1" stroke="none" stroke-width="1" fill="none" fill-rule="evenodd" sketch:type="MSPage">
        <path d="M390.76925,222.459681 C415.66942,247.359681 484.269889,315.959681 484.269889,315.959681 C484.269889,315.959681 601.27069,432.959681 643.670979,475.359681 C686.17127,517.859681 643.670979,562.159681 643.670979,562.159681 C643.670979,562.159681 565.470445,640.359681 499.169991,706.659681 C432.969539,772.859681 369.069102,706.659681 369.069102,706.659681 L27.2667642,371.859681 C-4.83345529,339.759681 27.2667642,305.759681 27.2667642,305.759681 L201.967959,131.059681 C201.967959,131.059681 239.368215,93.6596806 270.768429,62.2596806 L295.968602,37.0596806 C295.968602,37.0596806 341.06891,-11.7403194 382.469193,29.6596806 C382.469193,29.6596806 420.569454,69.5596806 382.469193,107.559681 C382.469193,107.559681 327.268816,159.959681 382.469193,215.159681 L390.76925,222.459681 L390.76925,222.459681 Z" id="path7" stroke="#666666" stroke-width="24" sketch:type="MSShapeGroup"></path>
    </g>
</svg>